<mxfile host="app.diagrams.net" agent="Mozilla/5.0 (Windows NT 10.0; Win64; x64) AppleWebKit/537.36 (KHTML, like Gecko) Chrome/131.0.0.0 Safari/537.36" version="24.8.4">
  <diagram name="garantie WIM" id="I1-BKpGgBZhrRX93OD_R">
    <mxGraphModel dx="2880" dy="1186" grid="1" gridSize="10" guides="1" tooltips="1" connect="1" arrows="1" fold="1" page="1" pageScale="1" pageWidth="850" pageHeight="1100" math="0" shadow="0">
      <root>
        <mxCell id="0" />
        <mxCell id="1" parent="0" />
        <mxCell id="3KdDPt9_6udBDojBiGqd-4" value="&lt;h4&gt;&lt;/h4&gt;&lt;h2&gt;&lt;/h2&gt;&lt;h4&gt;&lt;/h4&gt;&lt;h4&gt;&lt;/h4&gt;&lt;h5&gt;&lt;/h5&gt;&lt;h3&gt;&lt;/h3&gt;&lt;h4&gt;&lt;ul&gt;&lt;li&gt;id String @unique&lt;/li&gt;&lt;/ul&gt;&lt;ul&gt;&lt;li&gt;full_name String&lt;/li&gt;&lt;/ul&gt;&lt;ul&gt;&lt;li&gt;email String @unique&lt;/li&gt;&lt;/ul&gt;&lt;ul&gt;&lt;li&gt;phone_num String&lt;/li&gt;&lt;/ul&gt;&lt;ul&gt;&lt;li&gt;password String&lt;/li&gt;&lt;/ul&gt;&lt;ul&gt;&lt;li&gt;signature String&lt;/li&gt;&lt;/ul&gt;&lt;ul&gt;&lt;li&gt;notification Json&lt;/li&gt;&lt;/ul&gt;&lt;ul&gt;&lt;li&gt;paysafe ??&lt;/li&gt;&lt;/ul&gt;&lt;ul&gt;&lt;li&gt;created_at Date&lt;/li&gt;&lt;/ul&gt;&lt;ul&gt;&lt;li&gt;updated_at Date&lt;/li&gt;&lt;/ul&gt;&lt;/h4&gt;" style="rounded=0;whiteSpace=wrap;html=1;align=left;" vertex="1" parent="1">
          <mxGeometry x="40" y="80" width="240" height="320" as="geometry" />
        </mxCell>
        <mxCell id="3KdDPt9_6udBDojBiGqd-5" value="&lt;h3&gt;user model&lt;/h3&gt;" style="rounded=1;whiteSpace=wrap;html=1;" vertex="1" parent="1">
          <mxGeometry x="40" y="40" width="240" height="40" as="geometry" />
        </mxCell>
      </root>
    </mxGraphModel>
  </diagram>
</mxfile>
